<svg xmlns="http://www.w3.org/2000/svg" xmlns:xlink="http://www.w3.org/1999/xlink" viewBox="0 0 67.18 67.16"><defs><style>.cls-1,.cls-4{fill:#2a2c2b;}.cls-2{fill:url(#Degradado_sin_nombre_11);}.cls-3{fill:#0a0a0a;}.cls-4{opacity:0.25;}.cls-5{fill:#fff9dd;opacity:0.5;}.cls-6{fill:#7a390e;opacity:0.29;}</style><linearGradient id="Degradado_sin_nombre_11" x1="34.2" y1="1.25" x2="34.2" y2="64.81" gradientUnits="userSpaceOnUse"><stop offset="0" stop-color="#ef4136"/><stop offset="1" stop-color="#fbb040"/></linearGradient></defs><g id="Слой_2" data-name="Слой 2"><g id="OBJECTS"><path class="cls-1" d="M61,10.55l0,0C49.86-1.25,36.18-1.79,20.89,2.32c-.39.34-1.15.38-1.62.56-.2.59-1.25.88-1.76,1.11C11.62,8.91,4.93,11.19,1.87,18.9c-2.89,7.28-2.14,16.74.31,24C7,57.33,22.39,69,37.94,66.92h-.15C61.57,63.56,76.12,30.12,61,10.55Z"/><path class="cls-1" d="M21.5,2.27c-.77.19-6,3.49-3.37,3.06h0A3.72,3.72,0,0,0,19,5h0c.5-.22,1.47-.48,1.66-1.05h0v0c.47-.14,1.16-.14,1.52-.48h0c.52-.5-.13-1.32-.67-1.18Z"/><path class="cls-2" d="M40,1.25A74.7,74.7,0,0,0,22.16,3.46c-.37.35-1.06.35-1.53.52-.19.57-1.17.84-1.66,1.05C13.34,9.75,7,11.86,4.14,19.32c-2.73,7-2,16.35.57,23.33,4.87,13.21,19.18,23.9,33.58,21.92h-.14c22.4-3.46,36.38-34.68,22-53.34v0c-6-6.32-11-10-20.18-10Z"/><path class="cls-3" d="M15.9,21.51c-1.42.09-2.23,1.75-2.65,2.89a4,4,0,0,0-.65,2.15c-.89-3.63-1.56,1.95-1.41,3,.21,1.4,1.25,5.18,3,5.12,3.38,3.9,7.13-13.51,1.74-13.16Z"/><path class="cls-3" d="M54.15,21.72a1.63,1.63,0,0,0-1.18.59c-2.49.67-3.24,9.1-1.31,10.36a4.2,4.2,0,0,0,1.16,2.78c2.75,1.16,3.54-4.22,3.72-5.81a7.25,7.25,0,0,0,.14-2.86,5.46,5.46,0,0,0-.45-2.47,3.09,3.09,0,0,0-1.61-2.53,3.55,3.55,0,0,0-.47-.06Zm-.76,12Z"/><path class="cls-3" d="M12.93,12.09c-1.42,1.42,10,11,11.58,12.42a1.1,1.1,0,0,0,1.82.14,1.22,1.22,0,0,0-.43-1.51c-.66-.86-10.2-11.71-10.08-9.51-.35-.35-1.87-2.56-2.89-1.54Z"/><path class="cls-3" d="M51.65,11.2c-2.34,1.38-9.3,11.48-7.65,11.68-2,4.57,5.56-1.67,6.44-3.42.44-.88,2.16-6,.38-4,.16-.22,3.67-5.94.83-4.27Zm-1.46,5.18.51-.74c-.47.79-1,1.54-1.52,2.28l1-1.54Z"/><path class="cls-3" d="M37.23,34.7c-9.1.13-14,7.8-15.11,15.91,0,3.62,3.06-4.08,3.05-4,1.32-4.06,3-7,7.28-8.75C42,33.82,42.59,42.41,44,49.25v0c-.6,2.22,1.79-.36,2-1,.46-1.26-.49-3.6-.77-4.79-1-4.36-2.65-8.87-8-8.77ZM44,49.19a.07.07,0,0,1,0,.05h0v-.05Z"/><path class="cls-3" d="M33.45,12.83C33.51,14,34.69,24.75,36,24.4s.07-11.27-.91-12.25c-.7-.54-1.25-.31-1.65.68Z"/><path class="cls-3" d="M35.85,42.91c-1.28.4-3.94,3.39-3.16,4.64,1.19,1.89,2.88-2.06,3.58-2.68a1.18,1.18,0,0,1,.19-.11l0,0h.09c.79.19,1.72-.47,1.2-1.36l-.14-.19a1.93,1.93,0,0,0-1.8-.28Z"/><path class="cls-4" d="M9.47,43.36A2.62,2.62,0,0,0,8.28,44.9l-.09.68c0,3.09,8.34,13.15,11,8.72,1.57-2.67-6.77-12.64-9.68-10.94Z"/><path class="cls-5" d="M50.17,5.1c-4.18,1.14,2.5,5.29,3.25,6.74.41,1.19,2.17,5.9,4.41,3.69l.26-.33c2.25-3.91-3.94-8.87-6.88-10.1a1.84,1.84,0,0,0-1,0Z"/><path class="cls-5" d="M57.93,16.85a2.4,2.4,0,0,0-1.1,1.43l-.09.64c0,2.18,3.29,5.35,5,2.47.08-.18.15-.36.23-.55.57-2.11-1.7-5.35-4-4Z"/><path class="cls-6" d="M11.12,10.64a1.59,1.59,0,0,0-1.1.43C-1.8,14.56,1.56,38.68,4.88,46.18c3.55,8,17.94,24.71,28,15.71,6.07-5.43,2.46-17.78-.3-24-2.86-6.44-7.52-11.33-11.86-16.74-1.92-2.38-6.17-10.54-9.6-10.54Z"/></g></g></svg>