<svg xmlns="http://www.w3.org/2000/svg" xmlns:xlink="http://www.w3.org/1999/xlink" viewBox="0 0 74.65 67.16"><defs><style>.cls-1,.cls-4{fill:#2a2c2b;}.cls-2{fill:url(#Degradado_sin_nombre_8);}.cls-3{fill:#0a0a0a;}.cls-4{opacity:0.25;}.cls-5,.cls-6{fill:#fff9dd;}.cls-6{opacity:0.5;}.cls-7{fill:#161515;}</style><linearGradient id="Degradado_sin_nombre_8" x1="3.07" y1="33.01" x2="66.66" y2="33.01" gradientUnits="userSpaceOnUse"><stop offset="0" stop-color="#fbb040"/><stop offset="1" stop-color="#ffda19"/></linearGradient></defs><g id="Слой_2" data-name="Слой 2"><g id="OBJECTS"><path class="cls-1" d="M62.21,10.55l0,0C51.05-1.25,37.37-1.79,22.07,2.32c-.39.34-1.14.38-1.62.56-.19.59-1.24.88-1.75,1.11C12.8,8.91,6.11,11.19,3.05,18.9c-2.89,7.28-2.14,16.74.31,24C8.22,57.33,23.57,69,39.12,66.92H39C62.76,63.56,77.3,30.12,62.21,10.55Z"/><path class="cls-1" d="M21.73,2.25c-.77.19-6,3.49-3.37,3.06h0A3.41,3.41,0,0,0,19.19,5h0c.5-.22,1.48-.48,1.67-1h0v0c.47-.14,1.15-.14,1.52-.48h0a.73.73,0,0,0,.2-.7c-.22-.41-.51-.58-.86-.49Z"/><path class="cls-2" d="M40.64,1.23A75.21,75.21,0,0,0,22.83,3.44c-.38.35-1.06.35-1.53.52-.19.57-1.18.84-1.67,1C14,9.73,7.7,11.84,4.81,19.3c-2.74,7-2,16.35.57,23.33C10.25,55.84,24.55,66.53,39,64.55h-.14c22.4-3.46,36.38-34.68,22-53.34l0,0c-6-6.32-11-10-20.18-10Z"/><path class="cls-3" d="M9.45,21.8c-2.1,0-4.23,0-6.33.21A20.6,20.6,0,0,0,2.73,27c1.7,7.62,8.53,14.26,16.66,13.8,8.66-.48,11.23-8,12.54-15.36-7.66-3.23-14.18-3.6-22.48-3.6Z"/><path class="cls-3" d="M62.77,21.58c-7.11,0-14.21-.46-20.36,4-2,11.93,10.33,15.82,18.19,15.37C64.32,40,73,28,69.51,23.94c-1.48-.58-2.91-1.29-4.35-2l.53.26a6,6,0,0,0-2.92-.63Z"/><path class="cls-3" d="M42.23,41.71c-2,.56.74,9.77-3.09,11.65-5.79,2-6.12-8-6.14-10.89-.49-1-1-1-1.46,0,0,4.19,1,15.26,7.78,12.78,3.75-1.38,5.45-14.22,2.91-13.54Z"/><path class="cls-4" d="M13.87,46.85c-3.83,2.24,2.72,8.44,5.21,9.34,3.86,2.07,3-3.49.51-5.17-1.57-1.37-2.87-5.73-5.72-4.17Z"/><path class="cls-5" d="M25.76,31.38c-1.22,1.28-6.44,5.74-3.2,6.54,6.34,1.56,5.53-9,3.2-6.54Z"/><path class="cls-5" d="M61.77,30.78c-1.14.95-2,2.15-3.21,3.08-1.68,1.7,1,4.37,2.69,2.69,1-.82,3.12-2,3.3-3.47s-.76-4-2.78-2.3ZM59,33.49l-.08.07.08-.07Z"/><path class="cls-6" d="M48.16,7.69a2.74,2.74,0,0,0,2.89,2.6A4.83,4.83,0,0,1,52.8,11c1.42,1.25,4.42,5.7,6.4,2.35.09-.19.17-.39.25-.58C60.89,7.4,48.16,2,48.16,7.69Z"/><path class="cls-6" d="M58.63,16.33q1.83,3.66,3.66,0-1.83-3.67-3.66,0Z"/><path class="cls-7" d="M63.17,19c-8.15.08-14.84.57-21.94,4.41-2.74,0-5.68.35-8.4.3l-.09,0a69.34,69.34,0,0,0-6.52-3,66.38,66.38,0,0,0-19-.64c-1.2.13-10,1.24-6.26,3.42l.38.16a12.81,12.81,0,0,0,3.2-.29h0c9.06-.95,17.81-.42,26.12,3.16h0c2.59,1.31,10.38,1.39,12.84-.13h0c5.39-3.35,15.71-5.18,22.06-2.79l-.4-.17.13.05-.12-.06c1.37.58,2.72,1.17,4.14,1.64h0a10.75,10.75,0,0,0,3.13.88c3.54,1.2,2.11-1.95,1-3.51C71.69,19.94,65.9,18.9,63.17,19ZM41.46,23.29l-.07,0,.07,0Zm-15.81,1,.12.05-.06,0,.07,0h0l-.15-.06Zm.13.05Zm0,0h0l.05,0-.07,0Zm8.74,2.62h.07l-.11,0Zm-.12,0-.3,0,.3,0Z"/><path class="cls-7" d="M2.1,21c-4.33,2.53-.62,9.91,1,13,3,5.65,7.32,9.62,14,10.26C24.86,45,30.36,40.44,33,33.45c.71-1.88,1.86-4.78,1.62-6.73-.38-3.19-3.19-4.82-4-.25h0c-1.19,6.76-3.55,14-11.62,14.31-7.4.29-13.36-6-14.85-12.86a19.3,19.3,0,0,1,.35-4.61h0c0-.28.08-.56.11-.84A1.73,1.73,0,0,0,2.1,21Z"/><path class="cls-7" d="M70.46,22.66A3,3,0,0,0,69.27,25h0c3.57,3.45-5.77,13.34-8.49,13.94-7.58.37-19.08-2.8-17.32-12.61h0c.41-3.65-3.25-.34-3.7,1.26-.69,2.46,1.48,6.34,2.8,8.18,3.89,5.43,12.1,8.77,18.72,7.24,5.39-1.25,9.49-6,11.07-11.12.55-1.76,2.55-11.74-1.89-9.23Z"/></g></g></svg>