<svg xmlns="http://www.w3.org/2000/svg" xmlns:xlink="http://www.w3.org/1999/xlink" viewBox="0 0 75.44 67.16"><defs><style>.cls-1,.cls-4{fill:#2a2c2b;}.cls-2{fill:url(#Degradado_sin_nombre_8);}.cls-3{fill:#0a0a0a;}.cls-4{opacity:0.25;}.cls-5{fill:#fff9dd;opacity:0.5;}.cls-6{fill:#bd8d46;opacity:0.11;}</style><linearGradient id="Degradado_sin_nombre_8" x1="9.97" y1="34.16" x2="73.53" y2="34.16" gradientUnits="userSpaceOnUse"><stop offset="0" stop-color="#fbb040"/><stop offset="1" stop-color="#ffda19"/></linearGradient></defs><g id="Слой_2" data-name="Слой 2"><g id="OBJECTS"><path class="cls-1" d="M69.29,10.55v0C58.12-1.25,44.45-1.79,29.15,2.32c-.39.34-1.15.38-1.62.56-.19.59-1.25.88-1.76,1.11-5.89,4.92-12.58,7.2-15.64,14.91-2.89,7.28-2.14,16.74.31,24C15.3,57.33,30.65,69,46.2,66.92h-.15C69.83,63.56,84.38,30.12,69.29,10.55Z"/><path class="cls-1" d="M29,3.39c-.77.2-6,3.49-3.37,3.07h0a3.88,3.88,0,0,0,.81-.28h0c.5-.22,1.47-.48,1.66-1h0v0c.47-.14,1.16-.15,1.52-.49h0a.7.7,0,0,0,.2-.7c-.22-.41-.51-.57-.86-.49Z"/><path class="cls-2" d="M47.51,2.38A75.2,75.2,0,0,0,29.7,4.58c-.38.36-1.06.36-1.53.53-.19.56-1.18.83-1.66,1-5.36,4.49-11.38,6.51-14.42,13.33s-2.5,16.12-.19,23.17C16.41,56.41,31,67.73,45.83,65.7h-.14c22.4-3.47,36.38-34.69,22-53.34l0,0c-6-6.32-11-10-20.18-10Z"/><path class="cls-3" d="M25.39,27.78c-.51,2-.39,5.39-2.45,6.46l-.28.07a4.26,4.26,0,0,1-2.57-.83c-1-.95-1.67-7-3.48-5.93-1.63.94.8,5.9,1.76,6.82C26.94,42.62,25.71,27.1,26,27l-.64.81Z"/><path class="cls-3" d="M56.28,28c.22,3.61.32,9.14,5,9.56a5.55,5.55,0,0,0,5.45-3.67c.13-.31.71-6.49-.62-5.46s-3.28,12.81-7.26,5.27c-.54-1.62.27-5.23-.9-6.39-.7-.54-1.26-.31-1.66.69Z"/><path class="cls-3" d="M17.1,2.81c-.54,0-6.4,1-5.36,2.47,1.33,1.91,5.2-1,7.07-.41l.08,0L19,5c1.22,3.47-4.57,15.37,4.32,11.61,2.77-1.65-2.88-1.38-2.79-1.37l-.38-.1L19.88,15l-.1-.1a.16.16,0,0,1,0-.07l0-.1c-.2-3.64,4.5-12.44-2.61-12Zm1.71,2,0,0,0,0Zm.28,2.54,0,.2a1.36,1.36,0,0,1,0-.2Z"/><path class="cls-3" d="M3.35,1.18c-3.73.21-5.16,3.07,0,2C3.23,5.7.22,10.22,2,12.73c2.08,2.92,5.2.5,7.65-.54,3.3-1.95-6.76-.08-5.44,0l-.15,0-.16-.09a.94.94,0,0,0-.1-.1l-.07-.12-.06-.22C3.52,9.35,7.39,1,3.35,1.18Zm.24,2,.08.06-.08-.06Z"/><path class="cls-3" d="M45.07,31.13c-1.09,0-4.94.53-5.21,2.18-8.59,6.57,0,28.51,10.48,21.33,7-4.79,4.36-23.51-5.27-23.51Z"/><path class="cls-4" d="M18.48,44.53a2.66,2.66,0,0,0-1.21,1.58c0,.23-.07.46-.1.7a2.6,2.6,0,0,0,.36,1.33c.95,2.24,8.46,13.94,12,9.85,2.05-2.34-4.39-7.74-5.91-9.43a14.73,14.73,0,0,1-1.59-3.08l-.41-.54a2.68,2.68,0,0,0-3.19-.41Z"/><path class="cls-5" d="M57.42,7.41c-1,1.79,4.92,7.54,5.81,9.11,1.14,2,4.05,9.71,6.22,3.79,1.43-3.93-10-16.37-12-12.9Z"/><path class="cls-5" d="M67.67,24a2.49,2.49,0,0,0-1.46,1.12l-.24.59c-1.51,5.62,5.87,7.39,4.7,0l-.24-.59A2.47,2.47,0,0,0,67.67,24Z"/><path class="cls-6" d="M21.19,9.81a2,2,0,0,0-1.31.46C6,13.92,9.73,40,14.17,48.41,19,57.61,36.41,73.56,47.39,64c6.58-5.74,2.88-18.11-.29-24.68-3.44-7.14-9-12.32-14.26-18.1-2.42-2.66-7.56-11.4-11.65-11.4Z"/></g></g></svg>