<svg xmlns="http://www.w3.org/2000/svg" xmlns:xlink="http://www.w3.org/1999/xlink" viewBox="0 0 67.18 67.16"><defs><style>.cls-1,.cls-4{fill:#2a2c2b;}.cls-2{fill:url(#Degradado_sin_nombre_8);}.cls-3{fill:#0a0a0a;}.cls-4{opacity:0.25;}.cls-5{fill:#fff9dd;opacity:0.5;}.cls-6{fill:#bd8d46;opacity:0.11;}</style><linearGradient id="Degradado_sin_nombre_8" x1="1.67" y1="33.4" x2="65.26" y2="33.4" gradientUnits="userSpaceOnUse"><stop offset="0" stop-color="#fbb040"/><stop offset="1" stop-color="#ffda19"/></linearGradient></defs><g id="Слой_2" data-name="Слой 2"><g id="OBJECTS"><path class="cls-1" d="M61,10.55l0,0C49.86-1.25,36.18-1.79,20.89,2.32c-.39.34-1.15.38-1.62.56-.2.59-1.25.88-1.76,1.11C11.62,8.91,4.93,11.19,1.87,18.9c-2.89,7.28-2.14,16.74.31,24C7,57.33,22.39,69,37.94,66.92h-.15C61.57,63.56,76.12,30.12,61,10.55Z"/><path class="cls-1" d="M20.77,2.64c-.77.19-6,3.49-3.37,3.06h0a3.91,3.91,0,0,0,.81-.29h0c.5-.22,1.48-.48,1.67-1.05h0v0c.47-.14,1.16-.15,1.52-.49h0c.53-.5-.13-1.32-.66-1.18Z"/><path class="cls-2" d="M39.24,1.62a75.2,75.2,0,0,0-17.81,2.2c-.38.36-1.06.36-1.53.53-.19.57-1.18.84-1.67,1.05C12.6,10.12,6.31,12.23,3.41,19.69.67,26.73,1.4,36,4,43c4.87,13.21,19.17,23.9,33.58,21.93h-.14c22.4-3.46,36.38-34.68,22-53.34l0,0c-6-6.33-11-10-20.18-10Z"/><path class="cls-3" d="M19.77,23.53c-4,.08-7.07,2-10.34,4a.7.7,0,0,0,0,1.21c1.33.73,4.47-1.86,5.49-2.24,2.78-1,5.43-1.65,8.43-.68-3.1,1.54-1.4,5.88,1.08,7,3.16,1.41,7.8-1.93,4.9-5.34a1.16,1.16,0,0,0-.53-1c-.34-.14-.64-.33-1-.47a12.54,12.54,0,0,0-8-2.56Zm5.43,3.88a2.14,2.14,0,0,0-.5.66,1.45,1.45,0,0,0-.37.41l-.12.26a1.92,1.92,0,0,0-.4.76,5.49,5.49,0,0,1-.3-1v-.11l0-.11A1.66,1.66,0,0,1,25.2,27.41Z"/><path class="cls-3" d="M15,14.86c-2,.94-8.74,3.53-8.23,6.53S18.33,13,15,14.86Z"/><path class="cls-3" d="M50.92,12.52c-.81.81,5.45,8.39,6.67,7.29,1.75-1.57-4.93-8.73-6.67-7.29Z"/><path class="cls-3" d="M32.43,41.11a13.71,13.71,0,0,0-8.95,4.14c-.61.64-3.95,4.36-2.21,5.16,1.34.61,3.76-4.21,4.67-5,2.75-2.28,6.83-2.72,10.22-2.18,1.46.23,10.17,3.77,7.42.75-1.52-1.67-8.85-3.16-11.15-2.9Zm-4.25,3-.08,0,.08,0Z"/><path class="cls-3" d="M35.68,49.33c-1.2.12-4.08,1-4.42,2.23-.68,2.43,4.89-.43,5.51-.25,1.57.84,1.75-2.28-1.09-2Z"/><path class="cls-4" d="M7.62,39.33a2.13,2.13,0,0,0-1.24,1l-.21.5c-1.42,5.28,5.51,14.75,10.1,16.61,6.56,1.76-1-6.61-1.75-7.5l.2.26c-1.54-2-4.8-11.45-7.1-10.83Z"/><path class="cls-5" d="M46.75,6.51c-1.16,2,1.56,2.92,2.75,3.65C51,11.55,60,27.52,59.18,17.48c-.21-2.67-9.92-15.27-12.43-11Z"/><path class="cls-5" d="M58.29,24.1c-2.88.79-1.43,5,.51,5.78,4,1.05,3.23-6.81-.51-5.78Z"/><path class="cls-6" d="M12.82,9.27a2,2,0,0,0-1.31.46C-2.42,13.37,1.36,39.44,5.8,47.86,10.65,57.06,28,73,39,63.44c6.58-5.74,2.88-18.11-.29-24.67-3.44-7.15-9-12.33-14.26-18.1C22.05,18,16.91,9.27,12.82,9.27Z"/><path class="cls-3" d="M45.27,22.5c-4,.08-7.08,2-10.34,4.05a.7.7,0,0,0,0,1.21c1.33.72,4.47-1.87,5.49-2.25,2.78-1,5.43-1.65,8.42-.67-3.09,1.53-1.39,5.87,1.09,7,3.15,1.42,7.8-1.93,4.89-5.33a1.11,1.11,0,0,0-.53-1c-.33-.14-.63-.32-1-.46a12.52,12.52,0,0,0-8-2.57Zm5.43,3.89a2,2,0,0,0-.51.65,1.86,1.86,0,0,0-.37.42,2.72,2.72,0,0,1-.11.25,1.86,1.86,0,0,0-.4.76,6.4,6.4,0,0,1-.31-1v-.1a.56.56,0,0,1,0-.12A1.64,1.64,0,0,1,50.7,26.39Z"/></g></g></svg>