<svg xmlns="http://www.w3.org/2000/svg" xmlns:xlink="http://www.w3.org/1999/xlink" viewBox="0 0 67.18 67.16"><defs><style>.cls-1,.cls-5{fill:#2a2c2b;}.cls-2{fill:url(#Degradado_sin_nombre_8);}.cls-3{fill:#0a0a0a;}.cls-4{fill:#d1528f;}.cls-5{opacity:0.25;}.cls-6{fill:#fff9dd;opacity:0.5;}.cls-7{fill:#bd8d46;opacity:0.11;}</style><linearGradient id="Degradado_sin_nombre_8" x1="1.42" y1="34.06" x2="65.01" y2="34.06" gradientUnits="userSpaceOnUse"><stop offset="0" stop-color="#fbb040"/><stop offset="1" stop-color="#ffda19"/></linearGradient></defs><g id="Слой_2" data-name="Слой 2"><g id="OBJECTS"><path class="cls-1" d="M61,10.55l0,0C49.86-1.25,36.18-1.79,20.89,2.32c-.39.34-1.15.38-1.62.56-.2.59-1.25.88-1.76,1.11C11.62,8.91,4.93,11.19,1.87,18.9c-2.89,7.28-2.14,16.74.31,24C7,57.33,22.39,69,37.94,66.92h-.15C61.57,63.56,76.12,30.12,61,10.55Z"/><path class="cls-1" d="M20.52,3.31c-.77.19-6,3.49-3.37,3.06h0a3.63,3.63,0,0,0,.8-.29h0c.5-.22,1.48-.48,1.67-1.05h0V5c.46-.14,1.15-.15,1.52-.49h0a.7.7,0,0,0,.2-.69c-.22-.42-.51-.58-.86-.49Z"/><path class="cls-2" d="M37.4,2.35A73.85,73.85,0,0,0,21.18,4.49c-.38.36-1.06.36-1.53.53-.2.57-1.18.83-1.67,1.05C12.34,10.78,6.05,12.9,3.15,20.36c-2.73,7-2,16.34.58,23.32,4.86,13.18,19.18,24,33.58,21.93h-.15c22.4-3.45,36.39-34.7,22-53.34l0,0c-6.26-6.63-12-10.73-21.77-10ZM46.06,46.4c.41-1.37.2-5.5-.8-6.4a29,29,0,0,1,2.93-.15c.84,3.25,1.51,8.75-.45,11.64-1,1.13-2.66.9-3.85.13-3-2.59-2.8-7.76-3-11.32,1,0,2-.09,3-.18a.51.51,0,0,0-.09.13c0,.08-.07.16-.1.23a4.7,4.7,0,0,0,.05,1v0C43.64,40.69,45,50,46.06,46.4Z"/><path class="cls-3" d="M11.22,23c-1.43,1.43,4.62,5.49,5.46,6.48A11.61,11.61,0,0,0,17.73,31c.58,2,1-1.9,1-1.89-.17-.89-1.3-1.59-1.83-2.25S12.15,22.08,11.22,23Z"/><path class="cls-3" d="M19.22,23.17c-2.84.53-8.14,9.74-6.67,9.34l.23-.1c.83-.48,9-9.83,6.44-9.24Z"/><path class="cls-3" d="M41.81,21.75a1,1,0,0,0,0,1.38A39.43,39.43,0,0,1,50,31.71v0c.51,1.83.62-2.54.58-2.68-.32-1-1.72-2.16-2.32-2.9s-5-5.6-6.46-4.4Z"/><path class="cls-3" d="M50.79,22.65c-.16.14-8.37,8.49-7.81,9,3.27,2.65,9.35-9.25,8.56-9.25h0a.89.89,0,0,0-.75.3Z"/><path class="cls-3" d="M52.43,37.82c-7.13.17-14.25.6-21.38.8-3.72.11-16.3-2-18.56.24-.92.91,9.16,1.89,9.51,1.89,6.3.07,12.6-.31,18.9-.45h0c1.46,0,2.91-.17,4.36-.3h0a29,29,0,0,1,2.93-.15h0c1.63,0,4.94.73,6.29-.21,2-1.42-.41-1.85-2-1.82Z"/><path class="cls-3" d="M38.9,39.5c.26,4.31.28,15,6.71,14.85C51,54.17,54,41.46,49.48,38.79c-.6-.25-1.44-.12-1.32,1l0,.08h0c.84,3.25,1.51,8.75-.45,11.64-1,1.13-2.66.9-3.85.13-3.85-3.31-.53-10-3.33-12.81-.7-.54-1.26-.31-1.66.69Z"/><path class="cls-3" d="M44.64,39.81a1.22,1.22,0,0,0-.63.41h0a1.67,1.67,0,0,0-.12.16l-.12.3a1.23,1.23,0,0,0,0,.66c0,.22,0,.39.07.59v0c2.27,16.27,3.94-2.95.78-2.1Z"/><path class="cls-3" d="M14.57,12.77c-2.51.44-5.88,3.7-7.8,5.18-2.94,3,11.32-2.95,8.9-5.13l-1.1-.05Z"/><path class="cls-3" d="M46.49,11.78c-.35,1.23,5.39,4.12,6.18,4.87a.89.89,0,0,0,.76.42h0c2.56,0-5.22-8.68-7-5.29Z"/><path class="cls-4" d="M48.13,39.84c-1,0-1.92.06-2.87.16,1,.88,1.22,5,.8,6.4-1.8,3-2.29-4.79-2.31-4.95v0h0v0h0L43.69,41a.92.92,0,0,1,0-.52c0-.07.06-.15.1-.23a.51.51,0,0,1,.09-.13c-1,.09-2,.16-3,.18.2,3.61,0,8.72,3,11.32,1.17.77,2.86,1,3.85-.13,2-2.91,1.29-8.35.45-11.64Z"/><path class="cls-5" d="M7.9,40.56c-6.45,1.77,7.44,14.93,10.24,16.12,6,1.6-.67-5.46-1.85-6.88-1.4-1.69-5.91-9.92-8.39-9.24Z"/><path class="cls-6" d="M49.64,7.52c-4.24,1.16,3.14,5.88,4.07,7.11,1.07,1.4,3.61,10,6.13,5.7l.2-.48c1.34-5-5.59-10.73-9.39-12.33a1.92,1.92,0,0,0-1,0Z"/><path class="cls-6" d="M59.92,21.94a2.1,2.1,0,0,0-1.26,1l-.21.51A7.06,7.06,0,0,0,58.72,26c1.52,2.19,2.87,2,4.07-.55-.07-1.51-.63-4.1-2.87-3.5Z"/><path class="cls-6" d="M46.72,42c-.58.58.05,4.51.09,5.67.41.83.83.83,1.24,0,0-.63,0-7-1.33-5.67Z"/><path class="cls-7" d="M12.51,9.19a2,2,0,0,0-1.3.46C-2.72,13.29,1.06,39.36,5.49,47.78,10.34,57,27.73,72.94,38.72,63.36c6.57-5.74,2.87-18.11-.29-24.67-3.44-7.14-9-12.33-14.26-18.1-2.42-2.67-7.56-11.4-11.66-11.4Z"/></g></g></svg>