<svg xmlns="http://www.w3.org/2000/svg" xmlns:xlink="http://www.w3.org/1999/xlink" viewBox="0 0 67.18 67.16"><defs><style>.cls-1,.cls-7{fill:#2a2c2b;}.cls-2,.cls-9{fill:#bd8d46;}.cls-2{opacity:0.29;}.cls-3{fill:url(#Degradado_sin_nombre_8);}.cls-4{fill:#ffda19;}.cls-5{fill:#0a0a0a;}.cls-6{fill:#d1528f;}.cls-7{opacity:0.25;}.cls-8{fill:#fff9dd;opacity:0.5;}.cls-9{opacity:0.11;}</style><linearGradient id="Degradado_sin_nombre_8" x1="33.61" y1="2.04" x2="33.61" y2="65.61" gradientUnits="userSpaceOnUse"><stop offset="0" stop-color="#fbb040"/><stop offset="1" stop-color="#ffda19"/></linearGradient></defs><g id="Слой_2" data-name="Слой 2"><g id="OBJECTS"><path class="cls-1" d="M61,10.55l0,0C49.86-1.25,36.18-1.79,20.89,2.32c-.39.34-1.15.38-1.62.56-.2.59-1.25.88-1.76,1.11C11.62,8.91,4.93,11.19,1.87,18.9c-2.89,7.28-2.14,16.74.31,24C7,57.33,22.39,69,37.94,66.92h-.15C61.57,63.56,76.12,30.12,61,10.55ZM18.44,37.65h0c.15,1.07.35,2.6.67,4.23-.32-1.63-.52-3.15-.67-4.23Zm4.12,6.75a8.21,8.21,0,0,0,1.57,1.83c-1,1.16-1.59-1.66-1.6-1.9Zm1.86,1c-.1-2.29-.37-4.58-.66-6.86.31,2.28.56,4.57.66,6.86h0ZM23.2,37.89c.17-.21.36-.09.55.58A.83.83,0,0,0,23.2,37.89Zm1.29,12.5h.16l.23-.07-.23.07Zm1.48-.8L26,49.5l-.06.09a2.46,2.46,0,0,1-.33.31A2.46,2.46,0,0,0,26,49.59Zm1.54-10.36c0-.54,0-1.07.08-1.57-1.9.1-7.6-.93-9.15,0,1.51-1.51,7,.13,9.14,0h0C27.54,38.16,27.52,38.69,27.51,39.23ZM19.14,42v0Z"/><path class="cls-2" d="M38.59,36.85c-2.38-6.22-4.38-12.64-7-18.78h0a.65.65,0,0,1-.08-.17c-1.95-4.62-4.09-9.2-6.31-13.69a2.25,2.25,0,0,0,.08-.74c-2.25,1.64-6.13,1.8-8.66,2.91-2.13.93-6.25,5.43-8.14,5.49-11.38,14.82-5.64,40.18,9.75,50,5.31,3.38,13.94,6.81,19.75,2.67C46.69,58.34,41.53,44.53,38.59,36.85Z"/><path class="cls-3" d="M37.82,2.13A73.35,73.35,0,0,0,21.59,4.28a5.12,5.12,0,0,1-1.53.52c-.18.57-1.18.84-1.66,1C12.76,10.56,6.47,12.68,3.57,20.14c-2.71,7-2,16.21.51,23.15,4.83,13.33,19.16,24,33.65,22.1h-.15c22.51-3.19,36.25-34.84,22-53.34v0c-6.26-6.62-12-10.72-21.76-10Zm-13,47.62c-4.2-.88-5.08-8.75-5.56-12,.68-.69,7.44.08,8.66,0-.33,3.47.54,8.22-1.53,11.28a2.53,2.53,0,0,1-1.26.76Z"/><path class="cls-4" d="M22.84,38.1c-2.79,2.76,2.48,8.18,2.1,6.93-.1-2.19-.36-4.37-.64-6.55-.21-.61-.69-.74-1.46-.38Z"/><path class="cls-5" d="M14.77,20.73c-3.27,1.35-3.46,4.81-3.45,7.86q1,1.95,1.95,0c0-5.44,4.14-8.89,6.77-2.65,1.13,1.91,1.19-1.8,1-2.39a4.79,4.79,0,0,0-6.29-2.82Z"/><path class="cls-5" d="M46.32,18c-2.73.69-3.15,5.59-3,7.66-1.08,7.3,7.48,9.48,7.17.82a7.39,7.39,0,0,0-.59-4.69,5.47,5.47,0,0,0-1.37-2.45c-.45-.68-1.26-1.56-2.18-1.34Zm1,3.25h0l0,.05,0-.05Zm-.43,1.59c.13-.53.25-1.06.43-1.58,0,.1.08.2.11.29a9.28,9.28,0,0,0-.78,4,8.51,8.51,0,0,1,.24-2.75Zm-1,6.15a3.33,3.33,0,0,0,1.34.88,1.49,1.49,0,0,1-.31.4h0a2.9,2.9,0,0,1-1-1.28Zm.87,1.31h.07l-.07,0Z"/><path class="cls-5" d="M10.62,35.1c-.61,2.21,7.67,2.56,8.66,2.6h0c1.31-1.31,5.56,0,7.27,0,3.94,0,7.84-.8,11.78-.74,4.32.07,13.3,3.21,16.85-.34.51-.66.29-1.17-.63-1.54-9.6-.37-19.16.8-28.73.43-1.72-.07-14.34-2.06-15.2-.4Z"/><path class="cls-5" d="M28,37.1c0,.2,0,.4-.05.61h0c-.33,3.47.54,8.22-1.53,11.28a2.53,2.53,0,0,1-1.26.76h-.31c-4.2-.88-5.08-8.75-5.56-12h0c-.14-.85-1.21-1.73-1.84-.64,0,.08-.07.16-.1.23-1.06,3.91,2.6,15.31,7.92,14.4,4.42-.76,7.24-12.12,4.18-15.2-.62-.47-1.11-.27-1.46.61Z"/><path class="cls-5" d="M22.84,38.1c-2.79,2.76,2.48,8.18,2.1,6.93-.1-2.19-.36-4.37-.64-6.55-.21-.61-.69-.74-1.46-.38Zm2.08,6.79a.22.22,0,0,0,0,.08.22.22,0,0,1,0-.08Z"/><path class="cls-5" d="M16,13.33a1,1,0,0,0,0,1.38c.78.61,7,7.86,8.62,5.07L24,18.87c-2.2-2-4.48-3.87-6.83-5.69a1,1,0,0,0-1.18.15Z"/><path class="cls-5" d="M46.27,11.22C45.45,12.63,53,18,53.46,16.39l0-.25c0-1.65-6.15-6.74-7.22-4.92Z"/><path class="cls-6" d="M19.28,37.7h0c.48,3.29,1.34,11.17,5.56,12h.31A2.53,2.53,0,0,0,26.41,49c2.07-3.05,1.2-7.82,1.53-11.28-2.9.15-5.77,0-8.66,0Zm4.95,8.36c-2.76,0-.4-9.25.07-7.58.3,2.17.54,4.36.64,6.55.1.37-.31,1-.71,1Z"/><path class="cls-7" d="M9.67,44.8C5,47.56,14.18,56.33,16.74,57.67c2.22.47,3.09-.4,2.62-2.63-1.22-2.33-6.5-12.11-9.69-10.24Z"/><path class="cls-8" d="M49.6,6c-4.54,1.25.46,4.78,1.71,5.63,1.93,1.77,5.77,14.37,9,7.59C62.33,15,54.21,4.72,49.6,6Z"/><path class="cls-8" d="M58.69,23.09a2.69,2.69,0,0,0-1.57,1.21l-.27.63c-1.54,5.75,6.28,8.37,5.08,0l-.26-.63a2.82,2.82,0,0,0-3-1.21Z"/><path class="cls-8" d="M25,41.11c.1,6.46,2.52,6.19,2.41,0q-1.21-2.41-2.41,0Z"/><path class="cls-9" d="M13.78,9.64a2,2,0,0,0-1.3.46C-1.45,13.74,2.33,39.81,6.76,48.23,11.61,57.43,29,73.39,40,63.81c6.57-5.74,2.87-18.11-.29-24.67C36.26,32,30.66,26.81,25.44,21,23,18.37,17.88,9.64,13.78,9.64Z"/></g></g></svg>